<svg xmlns="http://www.w3.org/2000/svg" viewBox="0 0 960 280" role="img" aria-label="AIBTCSigView logo">
  <defs>
    <linearGradient id="bg" x1="0" y1="0" x2="1" y2="1">
      <stop offset="0%" stop-color="#0b1220" />
      <stop offset="100%" stop-color="#18243f" />
    </linearGradient>
    <linearGradient id="accent" x1="0" y1="0" x2="1" y2="0">
      <stop offset="0%" stop-color="#ff8a00" />
      <stop offset="100%" stop-color="#ffbd66" />
    </linearGradient>
  </defs>

  <rect x="0" y="0" width="960" height="280" rx="40" fill="url(#bg)" />

  <g transform="translate(56 44)">
    <rect x="0" y="0" width="192" height="192" rx="44" fill="#111a2f" />
    <circle cx="96" cy="96" r="60" fill="none" stroke="url(#accent)" stroke-width="12" />
    <path d="M84 60h20c18 0 33 9 33 25 0 11-6 19-16 22 12 3 21 12 21 25 0 18-15 30-36 30H84v-18h18c10 0 17-5 17-12 0-8-6-13-17-13H85v-16h16c10 0 16-5 16-12 0-7-6-11-15-11H84z" fill="#ffb347" />
    <path d="M72 51h12v20H72zm0 72h12v20H72zm74-72h12v20h-12zm0 72h12v20h-12z" fill="#ffd08a" opacity="0.9" />
  </g>

  <g transform="translate(280 90)">
    <text x="0" y="52" font-family="Segoe UI, Inter, Arial, sans-serif" font-size="56" font-weight="700" fill="url(#accent)">AIBTC</text>
    <text x="228" y="52" font-family="Segoe UI, Inter, Arial, sans-serif" font-size="56" font-weight="600" fill="#e8eefc">SigView</text>
    <text x="2" y="92" font-family="Segoe UI, Inter, Arial, sans-serif" font-size="22" font-weight="500" fill="#aab9d8">Real-time Intelligence for Your AIBTC Agent</text>
  </g>
</svg>
